# xmcd
# 
# Track frame offsets:
#     225
#     11394
#     24073
#     36869
#     49790
#     64097
#     80719
#     90797
#     100791
#     111875
#     125700
#     140213
#     152643
#     164030
#     175428
#     187999
#     198417
#     218012
#     228243
#     245697
#     262996
#     278189
#     304500
#     314600
# 
# Disc length: 4339
# 
# Revision: 1
# Processed by: cddbd v1.5.2PL0 Copyright (c) Steve Scherf et al.
# Submitted via: BonkEnc v1.0.6
# 
DISCID=4a10f018
DTITLE=Bluesberry - 25 let
DYEAR=1997
DGENRE=Blues
TTITLE0=Pocem moje stara
TTITLE1=Necekej ze se vratim
TTITLE2=Dobrejtro blues
TTITLE3=Blues posledni Startky
TTITLE4=Zase stace za staci
TTITLE5=Blues ve stinu lipy
TTITLE6=Padevet
TTITLE7=Veprova
TTITLE8=Zase je to soufl
TTITLE9=Nove wafky
TTITLE10=Co je to blues
TTITLE11=Blues opusteny silnice
TTITLE12=Vikend s Manou
TTITLE13=Brandejs
TTITLE14=HP City
TTITLE15=Neznam svoje jmeno
TTITLE16=Podivnej sen
TTITLE17=Veprovy ovar
TTITLE18=Klanovice
TTITLE19=Aspon se usmej, baby
TTITLE20=Mejdan
TTITLE21=Az budu chtit tak zavolam
TTITLE22=Rekreace s ROH
TTITLE23=Metarsky blues
EXTD=
EXTT0=
EXTT1=
EXTT2=
EXTT3=
EXTT4=
EXTT5=
EXTT6=
EXTT7=
EXTT8=
EXTT9=
EXTT10=
EXTT11=
EXTT12=
EXTT13=
EXTT14=
EXTT15=
EXTT16=
EXTT17=
EXTT18=
EXTT19=
EXTT20=
EXTT21=
EXTT22=
EXTT23=
PLAYORDER=
